<?xml version="1.0" encoding="utf-8"?>
<!-- Generator: Adobe Illustrator 21.0.0, SVG Export Plug-In . SVG Version: 6.00 Build 0)  -->
<svg version="1.1" id="Calque_1" xmlns="http://www.w3.org/2000/svg" xmlns:xlink="http://www.w3.org/1999/xlink" x="0px" y="0px"
	 viewBox="0 0 470 470" style="enable-background:new 0 0 470 470;" xml:space="preserve">
<style type="text/css">
	.st0{fill:#FF5274;}
</style>
<g>
	<path class="st0" d="M378.2,217.1c-4.1,0-7.5,3.4-7.5,7.5V359H99.3V224.6c0-4.1-3.4-7.5-7.5-7.5s-7.5,3.4-7.5,7.5v224.1
		c0,11.7,9.5,21.3,21.3,21.3h258.8c11.7,0,21.3-9.5,21.3-21.3V224.6C385.7,220.4,382.3,217.1,378.2,217.1z M364.4,455H105.6
		c-3.5,0-6.3-2.8-6.3-6.3V374h271.4v74.7C370.7,452.2,367.9,455,364.4,455z"/>
	<path class="st0" d="M259,407h-48c-4.1,0-7.5,3.4-7.5,7.5s3.4,7.5,7.5,7.5h48c4.1,0,7.5-3.4,7.5-7.5S263.1,407,259,407z"/>
	<path class="st0" d="M364.4,0H105.6C93.9,0,84.3,9.5,84.3,21.3v142c0,30.5,24.8,55.2,55.2,55.2c20.3,0,38.1-11.1,47.7-27.5
		c9.6,16.4,27.4,27.5,47.7,27.5s38.1-11.1,47.7-27.5c9.6,16.4,27.4,27.5,47.7,27.5c30.5,0,55.2-24.8,55.2-55.2v-142
		C385.7,9.5,376.1,0,364.4,0z M282.7,78c-4.1,0-7.5,3.4-7.5,7.5v60.3h-80.5V85.5c0-4.1-3.4-7.5-7.5-7.5s-7.5,3.4-7.5,7.5v60.3H99.3
		V63h271.4v82.8h-80.5V85.5C290.2,81.4,286.9,78,282.7,78z M105.6,15h258.8c3.5,0,6.3,2.8,6.3,6.3V48H99.3V21.3
		C99.3,17.8,102.1,15,105.6,15L105.6,15z M139.5,203.5c-22.2,0-40.2-18-40.2-40.2v-2.5h80.5v2.5
		C179.8,185.5,161.7,203.5,139.5,203.5z M235,203.5c-22.2,0-40.2-18-40.2-40.2v-2.5h80.5v2.5C275.2,185.5,257.2,203.5,235,203.5
		L235,203.5z M330.5,203.5c-22.2,0-40.2-18-40.2-40.2v-2.5h80.5v2.5C370.7,185.5,352.6,203.5,330.5,203.5L330.5,203.5z"/>
</g>
</svg>
