<?xml version="1.0" encoding="utf-8"?>
<!-- Generator: Adobe Illustrator 21.0.0, SVG Export Plug-In . SVG Version: 6.00 Build 0)  -->
<svg version="1.1" id="Calque_1" xmlns="http://www.w3.org/2000/svg" xmlns:xlink="http://www.w3.org/1999/xlink" x="0px" y="0px"
	 viewBox="0 0 469.9 469.9" style="enable-background:new 0 0 469.9 469.9;" xml:space="preserve">
<style type="text/css">
	.st0{fill:#FF5274;}
</style>
<g>
	<path class="st0" d="M242.6,360.6l-66.8,66.8c-17.8,17.8-41.4,27.6-66.6,27.6s-48.8-9.8-66.6-27.6C6,390.7,6,330.9,42.7,294.2
		l125.8-125.8c17.8-17.8,41.4-27.6,66.6-27.6s48.8,9.8,66.6,27.6c10.4,10.4,18.2,23,22.8,36.9l-59.5,59.5c-8,8-18.7,12.4-30,12.4
		s-22-4.4-30-12.4c-4-4-7.2-8.8-9.3-14c-1.6-3.8-5.9-5.7-9.8-4.1c-3.8,1.6-5.7,5.9-4.1,9.8c2.9,7.1,7.1,13.5,12.6,19
		c10.8,10.8,25.3,16.8,40.6,16.8s29.7-6,40.6-16.8l125.8-125.8c10.8-10.8,16.8-25.3,16.8-40.6s-6-29.7-16.8-40.6
		c-10.8-10.8-25.3-16.8-40.6-16.8c-15.3,0-29.7,6-40.6,16.8l-39.7,39.7c-2.9,2.9-2.9,7.7,0,10.6c2.9,2.9,7.7,2.9,10.6,0l39.7-39.7
		c8-8,18.7-12.4,30-12.4s22,4.4,30,12.4c8,8,12.4,18.7,12.4,30s-4.4,22-12.4,30L336,193.7c-5.5-13.3-13.6-25.5-23.8-35.8
		c-42.6-42.6-111.8-42.6-154.3,0L32.1,283.6c-42.6,42.6-42.6,111.8,0,154.3c21.3,21.3,49.2,31.9,77.2,31.9
		c27.9,0,55.9-10.6,77.2-31.9l66.8-66.8c2.9-2.9,2.9-7.7,0-10.6C250.3,357.6,245.6,357.6,242.6,360.6L242.6,360.6z"/>
	<path class="st0" d="M437.8,31.9c-42.6-42.6-111.8-42.6-154.3,0l-66.9,66.9c-2.9,2.9-2.9,7.7,0,10.6c2.9,2.9,7.7,2.9,10.6,0
		l66.9-66.9c36.7-36.7,96.4-36.7,133.1,0c36.7,36.7,36.7,96.4,0,133.1L301.4,301.4C283.7,319.2,260,329,234.9,329
		s-48.8-9.8-66.6-27.6c-10.4-10.4-18.2-23-22.8-36.9L205,205c8-8,18.7-12.4,30-12.4c11.3,0,22,4.4,30,12.4c4,4,7.2,8.8,9.3,14
		c1.6,3.8,5.9,5.7,9.8,4.1c3.8-1.6,5.7-5.9,4.1-9.8c-2.9-7.1-7.1-13.5-12.6-19c-10.8-10.8-25.3-16.8-40.6-16.8s-29.7,6-40.6,16.8
		l-61.3,61.3c-1.1,0.7-2,1.6-2.6,2.6l-61.8,61.8c-10.8,10.8-16.8,25.3-16.8,40.6s6,29.7,16.8,40.6c10.8,10.8,25.3,16.8,40.6,16.8
		s29.7-6,40.6-16.8l39.7-39.7c2.9-2.9,2.9-7.7,0-10.6c-2.9-2.9-7.7-2.9-10.6,0l-39.7,39.7c-8,8-18.7,12.4-30,12.4s-22-4.4-30-12.4
		c-8-8-12.4-18.7-12.4-30s4.4-22,12.4-30l54.6-54.6c5.5,13.3,13.6,25.5,23.8,35.8c20.6,20.6,48,32,77.2,32c29.2,0,56.6-11.4,77.2-32
		l125.8-125.8C480.4,143.7,480.4,74.5,437.8,31.9L437.8,31.9z"/>
</g>
</svg>
