<?xml version="1.0" encoding="utf-8"?>
<!-- Generator: Adobe Illustrator 21.0.0, SVG Export Plug-In . SVG Version: 6.00 Build 0)  -->
<svg version="1.1" id="Calque_1" xmlns="http://www.w3.org/2000/svg" xmlns:xlink="http://www.w3.org/1999/xlink" x="0px" y="0px"
	 viewBox="0 0 470 470" style="enable-background:new 0 0 470 470;" xml:space="preserve">
<style type="text/css">
	.st0{fill:#FF5274;}
</style>
<g>
	<path class="st0" d="M447.9,0H22.1C9.9,0,0,9.9,0,22.1v66.9c0,12.2,9.9,22.1,22.1,22.1h425.7c12.2,0,22.1-9.9,22.1-22.1V22.1
		C470,9.9,460.1,0,447.9,0z M455,89.1c0,3.9-3.2,7.1-7.1,7.1H22.1c-3.9,0-7.1-3.2-7.1-7.1V22.1c0-3.9,3.2-7.1,7.1-7.1h425.7
		c3.9,0,7.1,3.2,7.1,7.1L455,89.1L455,89.1z"/>
	<path class="st0" d="M285.1,174.3H55.6c-4.1,0-7.5,3.4-7.5,7.5s3.4,7.5,7.5,7.5h229.5c4.1,0,7.5-3.4,7.5-7.5
		S289.2,174.3,285.1,174.3z"/>
	<path class="st0" d="M414.4,159.3c-12.4,0-22.5,10.1-22.5,22.5s10.1,22.5,22.5,22.5s22.5-10.1,22.5-22.5S426.8,159.3,414.4,159.3z
		 M414.4,189.3c-4.1,0-7.5-3.4-7.5-7.5s3.4-7.5,7.5-7.5s7.5,3.4,7.5,7.5S418.5,189.3,414.4,189.3z"/>
	<path class="st0" d="M348.2,159.3c-12.4,0-22.5,10.1-22.5,22.5s10.1,22.5,22.5,22.5s22.5-10.1,22.5-22.5S360.6,159.3,348.2,159.3z
		 M348.2,189.3c-4.1,0-7.5-3.4-7.5-7.5s3.4-7.5,7.5-7.5s7.5,3.4,7.5,7.5S352.3,189.3,348.2,189.3z"/>
	<path class="st0" d="M447.9,126.2H22.1C9.9,126.2,0,136.2,0,148.4v66.9c0,12.2,9.9,22.1,22.1,22.1h425.7c12.2,0,22.1-9.9,22.1-22.1
		v-66.9C470,136.2,460.1,126.2,447.9,126.2z M455,215.3c0,3.9-3.2,7.1-7.1,7.1H22.1c-3.9,0-7.1-3.2-7.1-7.1v-66.9
		c0-3.9,3.2-7.1,7.1-7.1h425.7c3.9,0,7.1,3.2,7.1,7.1V215.3z"/>
	<path class="st0" d="M285.1,300.5H55.6c-4.1,0-7.5,3.4-7.5,7.5s3.4,7.5,7.5,7.5h229.5c4.1,0,7.5-3.4,7.5-7.5
		S289.2,300.5,285.1,300.5z"/>
	<path class="st0" d="M414.4,285.5c-12.4,0-22.5,10.1-22.5,22.5s10.1,22.5,22.5,22.5s22.5-10.1,22.5-22.5S426.8,285.5,414.4,285.5z
		 M414.4,315.5c-4.1,0-7.5-3.4-7.5-7.5s3.4-7.5,7.5-7.5s7.5,3.4,7.5,7.5S418.5,315.5,414.4,315.5z"/>
	<path class="st0" d="M348.2,285.5c-12.4,0-22.5,10.1-22.5,22.5s10.1,22.5,22.5,22.5s22.5-10.1,22.5-22.5S360.6,285.5,348.2,285.5z
		 M348.2,315.5c-4.1,0-7.5-3.4-7.5-7.5s3.4-7.5,7.5-7.5s7.5,3.4,7.5,7.5S352.3,315.5,348.2,315.5z"/>
	<path class="st0" d="M447.9,252.4H22.1C9.9,252.4,0,262.4,0,274.6v66.9c0,12.2,9.9,22.1,22.1,22.1h425.7c12.2,0,22.1-9.9,22.1-22.1
		v-66.9C470,262.4,460.1,252.4,447.9,252.4L447.9,252.4z M455,341.5c0,3.9-3.2,7.1-7.1,7.1H22.1c-3.9,0-7.1-3.2-7.1-7.1v-66.9
		c0-3.9,3.2-7.1,7.1-7.1h425.7c3.9,0,7.1,3.2,7.1,7.1V341.5z"/>
	<path class="st0" d="M462.5,430c4.1,0,7.5-3.4,7.5-7.5s-3.4-7.5-7.5-7.5H292.8c-0.6-3.6-3.7-6.3-7.4-6.3h-19.7v-22.5
		c0-4.1-3.4-7.5-7.5-7.5s-7.5,3.4-7.5,7.5v30c0,4.1,3.4,7.5,7.5,7.5h19.7V455h-85.7v-31.3h36c4.1,0,7.5-3.4,7.5-7.5
		s-3.4-7.5-7.5-7.5h-8.8v-22.5c0-4.1-3.4-7.5-7.5-7.5s-7.5,3.4-7.5,7.5v22.5h-19.7c-3.7,0-6.8,2.8-7.4,6.3H7.5
		c-4.1,0-7.5,3.4-7.5,7.5s3.4,7.5,7.5,7.5h169.6v15H7.5c-4.1,0-7.5,3.4-7.5,7.5s3.4,7.5,7.5,7.5h169.6v2.5c0,4.1,3.4,7.5,7.5,7.5
		h100.7c4.1,0,7.5-3.4,7.5-7.5V460h169.6c4.1,0,7.5-3.4,7.5-7.5s-3.4-7.5-7.5-7.5H292.9v-15H462.5z"/>
	<path class="st0" d="M285.1,48.1H55.6c-4.1,0-7.5,3.4-7.5,7.5s3.4,7.5,7.5,7.5h229.5c4.1,0,7.5-3.4,7.5-7.5S289.2,48.1,285.1,48.1z
		"/>
	<path class="st0" d="M414.4,33.1c-12.4,0-22.5,10.1-22.5,22.5s10.1,22.5,22.5,22.5s22.5-10.1,22.5-22.5S426.8,33.1,414.4,33.1z
		 M414.4,63.1c-4.1,0-7.5-3.4-7.5-7.5s3.4-7.5,7.5-7.5s7.5,3.4,7.5,7.5S418.5,63.1,414.4,63.1z"/>
	<path class="st0" d="M348.2,33.1c-12.4,0-22.5,10.1-22.5,22.5s10.1,22.5,22.5,22.5s22.5-10.1,22.5-22.5S360.6,33.1,348.2,33.1z
		 M348.2,63.1c-4.1,0-7.5-3.4-7.5-7.5s3.4-7.5,7.5-7.5s7.5,3.4,7.5,7.5S352.3,63.1,348.2,63.1z"/>
</g>
</svg>
